<?xml version="1.0"?>
<svg xmlns="http://www.w3.org/2000/svg" id="Layer_1" data-name="Layer 1" viewBox="0 0 512 512" width="512" height="512"><title>a1</title><path d="M402,108.523V36.951C402,20.16,388.34,7,371.549,7h-231.1C123.66,7,110,20.16,110,36.951v71.572A30.507,30.507,0,0,0,140.451,139h79.778l30.716,48.142A6.085,6.085,0,0,0,256,190h.009a6.078,6.078,0,0,0,5.061-2.88L291.47,139h80.081A30.507,30.507,0,0,0,402,108.523ZM288.166,127a5.989,5.989,0,0,0-5.07,2.778l-27.12,42.845L228.57,129.759A5.989,5.989,0,0,0,223.515,127H140.451A18.494,18.494,0,0,1,122,108.523V36.951C122,26.777,130.277,19,140.451,19h231.1C381.723,19,390,26.777,390,36.951v71.572A18.494,18.494,0,0,1,371.551,127Z"/><path d="M232.419,49.34,198.825,82.933,180.9,65.012a6,6,0,1,0-8.484,8.484L194.583,95.66a6,6,0,0,0,8.484,0L240.9,57.824a6,6,0,0,0-8.484-8.484Z"/><path d="M339.581,50.662a6,6,0,0,0-8.484,0L317.661,64.1,304.226,50.662a6,6,0,1,0-8.485,8.484l13.436,13.436L295.741,86.018a6,6,0,1,0,8.485,8.484l13.435-13.436L331.1,94.5a6,6,0,0,0,8.484-8.484L326.146,72.582l13.435-13.436A6,6,0,0,0,339.581,50.662Z"/><path d="M483.237,399.98a6.1,6.1,0,0,0-.663-.277L453,389.038V378.373a5.865,5.865,0,0,0-3.686-5.456l0,.083h.168L433,365.97v-1.339a79.327,79.327,0,0,0,48.044-68.5,24.525,24.525,0,0,0,15.4-22.882,24.779,24.779,0,0,0-.746-5.874,19.867,19.867,0,0,0-11.69-13.711l1-7.1c.021-.145.031-.291.041-.437a83.3,83.3,0,0,0-104.7-86.322c-6.008,1.613-11.33,4.2-16.477,6.708q-1.365.664-2.74,1.326a6,6,0,0,0-3.409,5.412,17.517,17.517,0,0,1-7.838,14.62L329,201.76a5.985,5.985,0,0,0-1.833,1.927l-1.24,2.082a5.787,5.787,0,0,0-.323.62,83.583,83.583,0,0,0-7.022,39.745c.01.152.026.3.049.455l1.029,7.048a19.821,19.821,0,0,0-11.737,13.741,24.645,24.645,0,0,0,10.935,26.8,16.977,16.977,0,0,0,3.676,1.743A79.8,79.8,0,0,0,371,364.822v1.047l-16.516,6.882.125.066c-.013,0,.041.008.028.013A5.939,5.939,0,0,0,351,378.373v10.664L321.426,399.7a5.961,5.961,0,0,0-.654.277,45.309,45.309,0,0,0-24.747,36.543c-.014.165-.025.332-.025.5V499.5c0,3.313,2.687,6.5,6,6.5H502c3.313,0,6-3.187,6-6.5V437.021c0-.166-.007-.333-.021-.5A45.3,45.3,0,0,0,483.237,399.98Zm-81.269,14.945L383,396.316V368.733a82.74,82.74,0,0,0,18.783,2.178A81.8,81.8,0,0,0,421,368.636v27.616Zm-9.386,7.552-10.772,7.182-17.957-35.912Zm47.565-28.73L422.19,429.659l-10.772-7.182Zm-3.389-13.253L433,384.252v-5.305ZM356.529,197.872a29.49,29.49,0,0,0,12.942-20.73,79.562,79.562,0,0,1,13.991-5.741,71.387,71.387,0,0,1,89.631,73.692l-1.431,10-.846,1.047a1.115,1.115,0,0,1-1.361.384c-.816-.288-.816-.8-.816-1.013A28.562,28.562,0,0,0,439.99,227H396.157a6.468,6.468,0,0,1-6.339-6.479,19.366,19.366,0,0,0-19.052-19.313l-18.87-.222Zm-20.623,14.921,12.736.126a48.63,48.63,0,0,0-11.475,27.9,12.21,12.21,0,0,1-5.88,9.392l-.749-5.124A71.613,71.613,0,0,1,335.906,212.793ZM335,291.715V291.6a6.171,6.171,0,0,0-5.311-5.936c-1.114-.388-3.754-1.422-4.61-1.814a13.044,13.044,0,0,1-3.48-3.287,12.8,12.8,0,0,1-2-10.336,8.01,8.01,0,0,1,7.262-6.136,5.962,5.962,0,0,0,2.4-.758c10.364-1.371,18.846-10.283,19.857-21.437,1.061-11.693,6.231-20.648,16.672-28.811l4.855.049a7.387,7.387,0,0,1,7.171,7.383A18.479,18.479,0,0,0,396.157,239H439.99a16.548,16.548,0,0,1,16.649,16.509,13.206,13.206,0,0,0,22.595,9.23A7.754,7.754,0,0,1,484,270.248a12.646,12.646,0,0,1-10.047,15.446A6,6,0,0,0,469,291.6v.117a67,67,0,1,1-134,0Zm36,92.6-3.875-3.874,3.875-1.6Zm-63,52.965a33.244,33.244,0,0,1,17.827-26.416l28.1-10.139,20.19,40.379a6,6,0,0,0,8.695,2.309L396,434.621V494H308ZM496,494H408V434.621l13.189,8.793a6,6,0,0,0,8.695-2.309l20.19-40.379,28.1,10.14A33.238,33.238,0,0,1,496,437.281Z"/><path d="M415.754,476.688a7.5,7.5,0,1,0,7.5,7.5A7.51,7.51,0,0,0,415.754,476.688Zm0,12a4.5,4.5,0,1,1,4.5-4.5A4.5,4.5,0,0,1,415.754,488.688Z"/><path d="M415.754,445.911a7.5,7.5,0,1,0,7.5,7.5A7.51,7.51,0,0,0,415.754,445.911Zm0,12a4.5,4.5,0,1,1,4.5-4.5A4.5,4.5,0,0,1,415.754,457.911Z"/><path d="M160.486,410.328a39.592,39.592,0,0,0,19.653-23.986,40.013,40.013,0,0,0,10.547-.719A39.519,39.519,0,0,0,222.25,346.9c0-12.194-7.455-23.477-16.2-30.895a24.283,24.283,0,0,0,3.7-19.7A19.881,19.881,0,0,0,193.5,281.46l1.427-20.7a81.988,81.988,0,0,0-81.794-87.629,81.987,81.987,0,0,0-81.794,87.629l1.433,20.782A19.79,19.79,0,0,0,16.462,296.3a24.2,24.2,0,0,0,3.27,19.041,39.533,39.533,0,0,0,26.42,71.016,39.571,39.571,0,0,0,24.678,26.2c.7.251,1.421.469,2.141.681l-38.786,14a5.586,5.586,0,0,0-.646.278A44.661,44.661,0,0,0,9.109,463.47c-.014.165-.109.332-.109.5V499.5c0,3.313,2.863,6.5,6.177,6.5H211.448c3.314,0,5.552-3.187,5.552-6.5V463.968c0-.166.217-.333.2-.5a44.452,44.452,0,0,0-24.231-35.953,5.1,5.1,0,0,0-.59-.277l-38.971-14.073c.685-.2,1.385-.409,2.055-.648A39.815,39.815,0,0,0,160.486,410.328ZM61.968,207.361a69.989,69.989,0,0,1,120.987,52.571l-1.446,20.97c-13.525-1.829-23.6-7.055-29.988-15.578-12.995-17.328-7.294-43.22-7.238-43.469A6,6,0,0,0,133.8,216.7l-19.289,23.5-.064.078A55.407,55.407,0,0,1,70.8,261.365a40.914,40.914,0,0,0-26.708,9.945l-.785-11.378A69.29,69.29,0,0,1,61.968,207.361Zm-33.851,91.8a7.737,7.737,0,0,1,7.787-5.851,8.975,8.975,0,0,1,1.6.368,6.55,6.55,0,0,0,1.116.325H39.2c.013,0,.026-.222.037-.222a6.359,6.359,0,0,0,.721-.161c.072-.01.144-.077.216-.089.194-.032.387-.1.576-.151.06-.016.118-.043.177-.061a5.9,5.9,0,0,0,.71-.267c.036-.016.07-.039.105-.056a6.075,6.075,0,0,0,.562-.3c.065-.04.131-.081.2-.124.164-.108.321-.224.475-.348.048-.039.1-.074.144-.114a5.752,5.752,0,0,0,.473-.452c.018-.02.034-.042.053-.063.051-.057.1-.118.149-.177q.188-.224.352-.462c.041-.059.083-.117.121-.178a6.226,6.226,0,0,0,.381-.693.2.2,0,0,0,.011-.02A28.794,28.794,0,0,1,70.8,273.365a67.344,67.344,0,0,0,53.016-25.594l7.214-8.79c.425,10.279,2.908,22.861,10.836,33.473,9.5,12.717,24.588,19.782,44.843,21,.078.006.154-.229.231-.227.043,0,.085-.225.128-.225h.522a6.207,6.207,0,0,0,1.116.127,8.031,8.031,0,0,1,9.389,5.917,11.3,11.3,0,0,1,.351,2.8A12.186,12.186,0,0,1,186.163,314h-1.238a6.166,6.166,0,0,0-6,6,65.826,65.826,0,0,1-131.592-.012,6.156,6.156,0,0,0-6-5.983H40.05a12.137,12.137,0,0,1-12.285-12.1A10.818,10.818,0,0,1,28.117,299.158ZM167,463.968V494H59V463.968c0-.166.075-.333.062-.5A44.5,44.5,0,0,0,46.1,435.684l40.831-14.747L107,448.03v23.139a6,6,0,0,0,12,0V448.03l20.244-27.21,41.216,14.864a44.807,44.807,0,0,0-13.222,27.786C167.224,463.635,167,463.8,167,463.968ZM131,411.8l-18,24.183L95,411.8V393.742a78.649,78.649,0,0,0,36,.011ZM56.812,378.879a6,6,0,0,0-7.25-5.089,28.014,28.014,0,0,1-11.566.1,27.548,27.548,0,0,1-9.155-50.277,24.06,24.06,0,0,0,6.863,2.38,77.274,77.274,0,0,0,23.164,47.89A76.217,76.217,0,0,0,83,389.852v12.979a35.381,35.381,0,0,1-4.5-.53,27.3,27.3,0,0,1-7.133-2.561A27.547,27.547,0,0,1,56.812,378.879ZM21,464.229a33.107,33.107,0,0,1,13-23.05,33.107,33.107,0,0,1,13,23.05V494H21Zm184,0V494H179V464.229a33.107,33.107,0,0,1,13-23.05C199.321,446.615,205,455.025,205,464.229Zm-53.553-63.012a27.792,27.792,0,0,1-3.736,1.036,23.693,23.693,0,0,1-4.711.536V389.874a77.923,77.923,0,0,0,47.548-63.894,24.128,24.128,0,0,0,6.21-2.047c7.09,5.456,13.489,14.389,13.489,22.971a27.482,27.482,0,0,1-21.968,26.962,27.952,27.952,0,0,1-11.549-.095,6,6,0,0,0-7.252,5.088,27.545,27.545,0,0,1-18.031,22.358Z"/></svg>
