<?xml version="1.0" encoding="UTF-8"?>
<svg xmlns="http://www.w3.org/2000/svg" xmlns:xlink="http://www.w3.org/1999/xlink" width="512" height="512" viewBox="0 0 38 60" version="1.1"><!-- Generator: Sketch 51.3 (57544) - http://www.bohemiancoding.com/sketch --><title>016 - Phone</title><desc>Created with Sketch.</desc><defs/><g id="Page-1" stroke="none" stroke-width="1" fill="none" fill-rule="evenodd"><g id="016---Phone" fill="#000000" fill-rule="nonzero"><path d="M10.685,24.137 C10.926,24.355 11.159,24.567 11.377,24.78 C13.019,26.374 18.147,30.594 18.365,30.772 C18.7340019,31.0753172 19.2659981,31.0753172 19.635,30.772 C19.853,30.594 24.981,26.372 26.623,24.78 C26.841,24.567 27.074,24.355 27.315,24.137 C28.87,22.724 31,20.79 31,16.938 C31,12.723 28.368,10 24.3,10 C22.2595289,9.98396567 20.3175221,10.8758231 19,12.434 C17.6824779,10.8758231 15.7404711,9.98396567 13.7,10 C9.628,10 7,12.723 7,16.938 C7,20.79 9.13,22.724 10.685,24.137 Z M13.7,12 C15.5386379,12.0008531 17.2293933,13.007785 18.106,14.624 C18.295461,14.9340618 18.6326354,15.1231719 18.996,15.1231719 C19.3593646,15.1231719 19.696539,14.9340618 19.886,14.624 C20.7639737,13.0052624 22.4584939,11.9979174 24.3,12 C27.289,12 29,13.8 29,16.938 C29,19.904 27.46,21.304 25.97,22.657 C25.713,22.891 25.463,23.118 25.229,23.345 C23.979,24.56 20.451,27.5 19,28.7 C17.549,27.5 14.021,24.557 12.771,23.342 C12.537,23.115 12.287,22.888 12.03,22.654 C10.54,21.3 9,19.9 9,16.938 C9,13.8 10.715,12 13.7,12 Z" id="Shape"/><path d="M5,0 C2.23994685,0.00330611633 0.00330611633,2.23994685 0,5 L0,55 C0.00330611633,57.7600532 2.23994685,59.9966939 5,60 L33,60 C35.7600532,59.9966939 37.9966939,57.7600532 38,55 L38,5 C37.9966939,2.23994685 35.7600532,0.00330611633 33,0 L5,0 Z M36,51 L2,51 L2,7 L36,7 L36,51 Z M33,58 L5,58 C3.34314575,58 2,56.6568542 2,55 L2,53 L18,53 L18,55 C18,55.5522847 18.4477153,56 19,56 C19.5522847,56 20,55.5522847 20,55 L20,53 L36,53 L36,55 C36,56.6568542 34.6568542,58 33,58 Z M36,5 L2,5 C2,3.34314575 3.34314575,2 5,2 L33,2 C34.6568542,2 36,3.34314575 36,5 Z" id="Shape"/><path d="M8,36 L30,36 C30.5522847,36 31,35.5522847 31,35 C31,34.4477153 30.5522847,34 30,34 L8,34 C7.44771525,34 7,34.4477153 7,35 C7,35.5522847 7.44771525,36 8,36 Z" id="Shape"/><path d="M8,40 L16,40 C16.5522847,40 17,39.5522847 17,39 C17,38.4477153 16.5522847,38 16,38 L8,38 C7.44771525,38 7,38.4477153 7,39 C7,39.5522847 7.44771525,40 8,40 Z" id="Shape"/><path d="M30,38 L21,38 C20.4477153,38 20,38.4477153 20,39 C20,39.5522847 20.4477153,40 21,40 L30,40 C30.5522847,40 31,39.5522847 31,39 C31,38.4477153 30.5522847,38 30,38 Z" id="Shape"/><path d="M8,44 L30,44 C30.5522847,44 31,43.5522847 31,43 C31,42.4477153 30.5522847,42 30,42 L8,42 C7.44771525,42 7,42.4477153 7,43 C7,43.5522847 7.44771525,44 8,44 Z" id="Shape"/><path d="M8,48 L16,48 C16.5522847,48 17,47.5522847 17,47 C17,46.4477153 16.5522847,46 16,46 L8,46 C7.44771525,46 7,46.4477153 7,47 C7,47.5522847 7.44771525,48 8,48 Z" id="Shape"/></g></g></svg>
